<svg xmlns="http://www.w3.org/2000/svg" width="3374" height="3401" viewBox="0 0 3374 3401" fill="none">
    <g opacity="0.2">
        <path d="M1545.3 2005.76C1370.05 1937.15 1283.61 1739.47 1352.22 1564.22" stroke="black" stroke-width="0.5" stroke-linecap="round"/>
        <path d="M2744.12 2109.03C2511.82 2702.37 1842.5 2995.04 1249.16 2762.73" stroke="black" stroke-width="0.5" stroke-linecap="round"/>
        <path d="M2109.16 2000.2C2281.51 1757.4 2224.4 1420.86 1981.61 1248.5C1738.81 1076.15 1402.26 1133.25 1229.91 1376.05" stroke="black" stroke-width="0.5" stroke-linecap="round"/>
        <path d="M714.399 1970.43C558.714 1443.13 859.962 889.469 1387.25 733.784" stroke="black" stroke-width="0.5" stroke-linecap="round"/>
        <path d="M1363.19 950.235C955.454 1119.51 762.15 1587.27 931.427 1995C1100.7 2402.73 1568.46 2596.04 1976.19 2426.76" stroke="black" stroke-width="0.5" stroke-linecap="round"/>
        <path d="M1893.95 1586.09C1879.55 1554.16 1858.52 1525.66 1832.25 1502.47C1805.99 1479.29 1775.1 1461.96 1741.63 1451.62C1708.16 1441.29 1672.88 1438.19 1638.12 1442.54" stroke="black" stroke-width="0.5" stroke-linecap="round"/>
        <path d="M1758.79 1599.2C1735.58 1575.59 1704.04 1562.04 1670.94 1561.46C1637.84 1560.89 1605.85 1573.34 1581.84 1596.13" stroke="black" stroke-width="0.5" stroke-linecap="round"/>
        <circle cx="1669.53" cy="1688.46" r="32.5273" stroke="black" stroke-width="0.5" stroke-linecap="round"/>
        <path d="M2574.98 2211.22C2286.26 2711.28 1646.83 2882.62 1146.77 2593.9C646.706 2305.19 475.372 1665.76 764.084 1165.7" stroke="black" stroke-width="0.5" stroke-linecap="round"/>
        <path d="M2589.57 1688.46C2589.57 2196.59 2177.65 2608.51 1669.51 2608.51C1161.38 2608.51 749.455 2196.59 749.455 1688.46" stroke="black" stroke-width="0.5" stroke-linecap="round"/>
        <path d="M2739.96 2306.47C3081.28 1715.29 2878.72 959.34 2287.54 618.018C1696.35 276.696 940.402 479.252 599.08 1070.44" stroke="black" stroke-width="0.5" stroke-linecap="round"/>
        <path d="M2739.82 1688.46C2739.82 1097.35 2260.63 618.155 1669.52 618.155" stroke="black" stroke-width="0.5" stroke-linecap="round"/>
        <path d="M2783.2 1688.46C2783.2 2303.52 2284.59 2802.13 1669.53 2802.13C1054.47 2802.13 555.859 2303.52 555.859 1688.46" stroke="black" stroke-width="0.5" stroke-linecap="round"/>
        <path d="M2281.88 1327.24C2082.38 989.044 1646.5 876.608 1308.31 1076.1C970.115 1275.6 857.678 1711.48 1057.17 2049.67" stroke="black" stroke-width="0.5" stroke-linecap="round"/>
        <path d="M2183.47 2559.74C1702.28 2843.59 1082.08 2683.61 798.231 2202.41C514.38 1721.22 674.36 1101.02 1155.56 817.172" stroke="black" stroke-width="0.5" stroke-linecap="round"/>
        <path d="M1961.07 2182.69C1688.11 2343.71 1336.3 2252.96 1175.29 1980C1014.27 1707.04 1105.02 1355.23 1377.98 1194.22" stroke="black" stroke-width="0.5" stroke-linecap="round"/>
        <path d="M2665.85 2361.66C2294.05 2911.91 1546.58 3056.58 996.323 2684.78C446.069 2312.98 301.402 1565.51 673.2 1015.26" stroke="black" stroke-width="0.5" stroke-linecap="round"/>
        <path d="M2368.61 1276.18C2596.45 1662.42 2468.04 2160.22 2081.8 2388.06" stroke="black" stroke-width="0.5" stroke-linecap="round"/>
        <path d="M1911.99 1545.43C1990.97 1679.34 1946.46 1851.92 1812.55 1930.91C1678.65 2009.9 1506.06 1965.38 1427.07 1831.48" stroke="black" stroke-width="0.5" stroke-linecap="round"/>
        <path d="M1993.71 1497.23C2099.32 1676.27 2039.8 1907.03 1860.75 2012.64C1681.71 2118.25 1450.96 2058.73 1345.34 1879.69" stroke="black" stroke-width="0.5" stroke-linecap="round"/>
        <path d="M1899.06 2077.57C1684.16 2204.34 1407.18 2132.89 1280.41 1917.99C1153.64 1703.09 1225.09 1426.11 1439.99 1299.34" stroke="black" stroke-width="0.5" stroke-linecap="round"/>
        <circle cx="1669.51" cy="1688.46" r="1302.64" stroke="black" stroke-width="0.5" stroke-linecap="round"/>
        <path d="M2783.2 1688.46C2783.2 1073.39 2284.59 574.786 1669.53 574.786C1054.47 574.786 555.859 1073.39 555.859 1688.46" stroke="black" stroke-width="0.5" stroke-linecap="round"/>
        <path d="M1669.52 2565.14C1185.34 2565.14 792.832 2172.64 792.832 1688.46C792.832 1204.28 1185.34 811.77 1669.52 811.77" stroke="black" stroke-width="0.5" stroke-linecap="round"/>
        <path d="M1669.52 3018.97C934.698 3018.97 339.004 2423.28 339.004 1688.46C339.004 953.629 934.698 357.936 1669.52 357.936" stroke="black" stroke-width="0.5" stroke-linecap="round"/>
        <path d="M1900.43 826.679C2376.37 954.208 2658.82 1443.42 2531.29 1919.37C2403.76 2395.31 1914.55 2677.76 1438.6 2550.23" stroke="black" stroke-width="0.5" stroke-linecap="round"/>
        <path d="M1900.43 826.679C2376.37 954.208 2658.82 1443.42 2531.29 1919.37C2403.76 2395.31 1914.55 2677.76 1438.6 2550.23" stroke="black" stroke-width="0.5" stroke-linecap="round"/>
        <path d="M2857.54 1688.46C2857.54 1032.33 2325.65 500.438 1669.53 500.438C1013.4 500.438 481.506 1032.33 481.506 1688.46" stroke="black" stroke-width="0.5" stroke-linecap="round"/>
        <path d="M2857.54 1688.46C2857.54 1032.33 2325.65 500.438 1669.53 500.438C1013.4 500.438 481.506 1032.33 481.506 1688.46" stroke="black" stroke-width="0.5" stroke-linecap="round"/>
        <path d="M910.576 1334.23C1105.68 915.467 1603.33 734.156 2022.1 929.264C2440.86 1124.37 2622.17 1622.02 2427.07 2040.78" stroke="black" stroke-width="0.5" stroke-linecap="round"/>
        <path d="M1879.79 2052.08C2080.18 1936.38 2148.85 1680.13 2033.15 1479.74C1917.45 1279.34 1661.2 1210.68 1460.81 1326.38" stroke="black" stroke-width="0.5" stroke-linecap="round"/>
        <path d="M2306.12 1689.23C2306.12 2040.39 2021.45 2325.06 1670.29 2325.06C1319.13 2325.06 1034.46 2040.39 1034.46 1689.23" stroke="black" stroke-width="0.5" stroke-linecap="round"/>
        <path d="M2049.09 2513.98C1592.81 2723.75 1052.88 2523.92 843.113 2067.64" stroke="black" stroke-width="0.5" stroke-linecap="round"/>
        <path d="M1880.42 2147.19C1627.18 2263.61 1327.51 2152.7 1211.09 1899.46C1094.66 1646.22 1205.58 1346.55 1458.81 1230.13" stroke="black" stroke-width="0.5" stroke-linecap="round"/>
        <path d="M1536.89 1400.88C1695.68 1327.88 1883.59 1397.43 1956.59 1556.22" stroke="black" stroke-width="0.5" stroke-linecap="round"/>
        <path d="M1707.83 1771.11C1753.17 1750.27 1773.02 1696.62 1752.18 1651.28" stroke="black" stroke-width="0.5" stroke-linecap="round"/>
        <path d="M1668.85 1866.58C1570.05 1866.64 1489.91 1786.58 1489.85 1687.78" stroke="black" stroke-width="0.5" stroke-linecap="round"/>
        <path d="M1654.02 1741.39C1624.53 1733.49 1607.04 1703.18 1614.94 1673.69C1622.84 1644.21 1653.15 1626.71 1682.63 1634.61" stroke="black" stroke-width="0.5" stroke-linecap="round"/>
        <path d="M1049.4 1405.43C1205.89 1063.03 1610.32 912.327 1952.71 1068.82C2295.11 1225.31 2445.81 1629.73 2289.32 1972.13" stroke="black" stroke-width="0.5" stroke-linecap="round"/>
        <path d="M1403.57 767.683C1912.1 621.123 2443.16 914.559 2589.72 1423.09C2736.28 1931.62 2442.84 2462.68 1934.31 2609.24" stroke="black" stroke-width="0.5" stroke-linecap="round"/>
        <path d="M1630.14 1552.22C1554.27 1574.09 1510.49 1653.32 1532.35 1729.2C1554.22 1805.07 1633.46 1848.85 1709.33 1826.99" stroke="black" stroke-width="0.5" stroke-linecap="round"/>
        <path d="M1669.48 2758.08C2260.46 2758.18 2739.63 2279.17 2739.73 1688.18" stroke="black" stroke-width="0.5" stroke-linecap="round"/>
        <path d="M1669.11 2436.79C1255.84 2436.72 920.873 2101.64 920.943 1688.37C921.012 1275.1 1256.09 940.133 1669.36 940.202" stroke="black" stroke-width="0.5" stroke-linecap="round"/>
        <path d="M1968.58 1481.8C2080.75 1645.01 2037.56 1869.49 1872.12 1983.19" stroke="black" stroke-width="0.5" stroke-linecap="round"/>
        <path d="M2245.56 544.444C2868.78 858.563 3115.87 1625.35 2797.44 2257.1C2479.02 2888.85 1715.67 3146.35 1092.45 2832.23" stroke="black" stroke-width="0.5" stroke-linecap="round"/>
        <path d="M2163.17 1348.13C2348.07 1617.15 2276.88 1987.17 2004.18 2174.6C1731.48 2362.02 1360.52 2295.88 1175.63 2026.86" stroke="black" stroke-width="0.5" stroke-linecap="round"/>
        <path d="M2498.19 1494.36C2392 1042.89 1934.93 764.163 1477.28 871.8" stroke="black" stroke-width="0.5" stroke-linecap="round"/>
        <path d="M1931.29 1688.46C1931.29 1634.35 1914.52 1581.57 1883.29 1537.38C1852.07 1493.2 1807.91 1459.77 1756.91 1441.71C1705.91 1423.65 1650.56 1421.83 1598.48 1436.51C1546.41 1451.2 1500.16 1481.66 1466.1 1523.7" stroke="black" stroke-width="0.5" stroke-linecap="round"/>
    </g>
</svg>